<svg xmlns="http://www.w3.org/2000/svg" width="1440" height="900" viewBox="0 0 1440 900">
<rect width="1440" height="900" fill="#070b1a"/>
<circle cx="180" cy="120" r="180" fill="#38bdf8" opacity="0.25"/>
<circle cx="1250" cy="750" r="220" fill="#a855f7" opacity="0.25"/>
<rect x="60" y="60" width="1320" height="120" rx="22" fill="#ffffff" fill-opacity="0.10" stroke="#fff" stroke-opacity="0.2"/>
<text x="95" y="118" fill="#fff" font-size="44" font-family="Arial" font-weight="800">The Next Top Professor</text>
<text x="95" y="154" fill="#dbeafe" font-size="22" font-family="Arial">6 人線上桌遊：價值排序 × 角色能力 × 任務情境</text>
<rect x="60" y="205" width="390" height="620" rx="22" fill="#ffffff" fill-opacity="0.10" stroke="#fff" stroke-opacity="0.2"/>
<rect x="525" y="205" width="390" height="620" rx="22" fill="#ffffff" fill-opacity="0.10" stroke="#fff" stroke-opacity="0.2"/>
<rect x="990" y="205" width="390" height="620" rx="22" fill="#ffffff" fill-opacity="0.10" stroke="#fff" stroke-opacity="0.2"/>
<text x="90" y="255" fill="#fff" font-size="28" font-family="Arial" font-weight="700">本回合資訊</text>
<text x="555" y="255" fill="#fff" font-size="28" font-family="Arial" font-weight="700">玩家操作區</text>
<text x="1020" y="255" fill="#fff" font-size="28" font-family="Arial" font-weight="700">排行榜</text>
<rect x="92" y="290" width="330" height="190" rx="16" fill="#101935" stroke="#38bdf8"/>
<text x="112" y="330" fill="#dbeafe" font-size="22" font-family="Arial">任務：升等壓力年</text>
<text x="112" y="366" fill="#dbeafe" font-size="18" font-family="Arial">一年 3 篇 SSCI 才能續聘</text>
<rect x="92" y="500" width="330" height="125" rx="16" fill="#101935" stroke="#f59e0b"/>
<text x="112" y="543" fill="#dbeafe" font-size="22" font-family="Arial">事件：學校凍聘</text>
<rect x="92" y="642" width="330" height="155" rx="16" fill="#101935" stroke="#22c55e"/>
<text x="112" y="683" fill="#dbeafe" font-size="22" font-family="Arial">輪到 Player 3</text>
<rect x="556" y="300" width="110" height="110" rx="14" fill="#101935" stroke="#22c55e"/>
<rect x="678" y="300" width="110" height="110" rx="14" fill="#101935" stroke="#a855f7"/>
<rect x="800" y="300" width="110" height="110" rx="14" fill="#101935" stroke="#f97316"/>
<text x="576" y="460" fill="#dbeafe" font-size="18" font-family="Arial">第一順位</text>
<text x="698" y="460" fill="#dbeafe" font-size="18" font-family="Arial">第二順位</text>
<text x="820" y="460" fill="#dbeafe" font-size="18" font-family="Arial">第三順位</text>
<rect x="556" y="520" width="180" height="52" rx="10" fill="#6d28d9"/>
<rect x="748" y="520" width="180" height="52" rx="10" fill="#f97316"/>
<text x="578" y="553" fill="#fff" font-size="20" font-family="Arial">提交排序</text>
<text x="772" y="553" fill="#fff" font-size="20" font-family="Arial">結算回合</text>
<rect x="1022" y="290" width="326" height="72" rx="12" fill="#101935" stroke="#fff" stroke-opacity="0.25"/>
<rect x="1022" y="374" width="326" height="72" rx="12" fill="#101935" stroke="#fff" stroke-opacity="0.25"/>
<rect x="1022" y="458" width="326" height="72" rx="12" fill="#101935" stroke="#fff" stroke-opacity="0.25"/>
<text x="1048" y="334" fill="#fff" font-size="24" font-family="Arial">1. Player 2 — 18 分</text>
<text x="1048" y="418" fill="#fff" font-size="24" font-family="Arial">2. Player 4 — 16 分</text>
<text x="1048" y="502" fill="#fff" font-size="24" font-family="Arial">3. Player 1 — 14 分</text>
<text x="1060" y="790" fill="#dbeafe" font-size="18" font-family="Arial">Mock Screenshot for pitch deck / rulebook</text>
</svg>